<?xml version="1.0" standalone="no"?>
<!DOCTYPE svg PUBLIC "-//W3C//DTD SVG 20010904//EN"
 "http://www.w3.org/TR/2001/REC-SVG-20010904/DTD/svg10.dtd">
<svg version="1.0" xmlns="http://www.w3.org/2000/svg"
 width="512.000000pt" height="512.000000pt" viewBox="0 0 512.000000 512.000000"
 preserveAspectRatio="xMidYMid meet">

<g transform="translate(0.000000,512.000000) scale(0.100000,-0.100000)"
fill="#000000" stroke="none">
<path d="M377 5110 c-177 -30 -337 -194 -367 -376 -6 -34 -10 -365 -10 -784 0
-798 1 -812 61 -916 57 -101 146 -175 265 -220 46 -17 97 -19 779 -22 480 -2
757 1 810 8 219 29 376 186 405 405 7 53 10 330 8 810 -3 682 -5 733 -22 779
-45 119 -119 208 -220 265 -104 60 -116 61 -926 60 -404 -1 -757 -5 -783 -9z
m1533 -231 c64 -14 127 -61 157 -118 l23 -44 0 -757 0 -758 -28 -53 c-20 -39
-41 -62 -77 -84 l-48 -30 -767 -3 -766 -2 -45 23 c-59 31 -105 93 -119 160 -7
37 -10 276 -8 778 3 684 4 726 22 759 36 69 92 114 161 131 51 12 1437 10
1495 -2z"/>
<path d="M3152 5105 c-151 -33 -276 -148 -338 -311 -17 -46 -19 -97 -22 -779
-2 -480 1 -757 8 -810 29 -219 186 -376 405 -405 53 -7 330 -10 810 -8 682 3
733 5 779 22 119 45 208 119 265 220 60 104 61 118 61 916 0 419 -4 750 -10
784 -30 187 -189 346 -376 376 -34 6 -364 10 -789 9 -577 0 -743 -3 -793 -14z
m1603 -242 c47 -25 85 -64 111 -113 18 -33 19 -75 22 -759 2 -502 -1 -741 -8
-778 -14 -67 -60 -129 -119 -160 l-45 -23 -766 2 -767 3 -48 30 c-36 22 -57
45 -77 84 l-28 53 0 758 0 757 23 43 c29 56 84 99 144 116 38 10 205 13 783
11 732 -2 735 -2 775 -24z"/>
<path d="M410 2323 c-137 -15 -276 -109 -349 -237 -60 -104 -61 -118 -61 -916
0 -419 4 -750 10 -784 30 -187 189 -346 376 -376 34 -6 365 -10 784 -10 798 0
812 1 916 61 101 57 175 146 220 265 17 46 19 97 22 779 2 480 -1 757 -8 810
-28 214 -185 375 -395 405 -65 9 -1433 12 -1515 3z m1561 -261 c39 -20 62 -41
84 -77 l30 -48 3 -767 2 -766 -23 -45 c-31 -59 -93 -105 -160 -119 -37 -7
-276 -10 -778 -8 -720 3 -724 3 -764 25 -47 25 -85 64 -111 113 -18 33 -19 75
-22 759 -2 502 1 741 8 778 14 67 60 129 119 160 l44 23 757 0 758 0 53 -28z"/>
<path d="M3899 1845 c-53 -29 -59 -60 -59 -324 l0 -241 -241 0 c-202 0 -247
-3 -275 -16 -59 -28 -80 -95 -49 -154 29 -56 49 -60 320 -60 l245 0 0 -240 c0
-261 5 -291 53 -323 15 -9 45 -17 68 -17 33 0 47 6 75 34 l34 34 0 256 0 256
256 0 256 0 34 34 c28 28 34 42 34 75 0 23 -8 53 -17 68 -32 48 -62 53 -323
53 l-240 0 0 245 c0 271 -4 291 -60 320 -36 19 -77 19 -111 0z"/>
</g>
</svg>
